<svg xmlns="http://www.w3.org/2000/svg" viewBox="0 0 64 64" width="64" height="64" role="img" aria-label="Nico"><defs><clipPath id="avc-nico"><circle cx="32" cy="32" r="32"/></clipPath></defs>
<g clip-path="url(#avc-nico)">
<rect width="64" height="64" fill="#D9922E"/>

<path d="M8 66c2-13 12-20 24-20s22 7 24 20z" fill="#FFFFFF"/>
<rect x="28" y="38" width="8" height="10" rx="3" fill="#6E4A2F"/>
<rect x="28" y="40" width="8" height="4" fill="rgba(0,0,0,.12)"/>
<ellipse cx="32" cy="29" rx="12.5" ry="13.5" fill="#6E4A2F"/>
<ellipse cx="19.8" cy="30" rx="2.2" ry="3" fill="#6E4A2F"/><ellipse cx="44.2" cy="30" rx="2.2" ry="3" fill="#6E4A2F"/>
<circle cx="22" cy="19" r="6" fill="#121212"/><circle cx="28" cy="15" r="6.5" fill="#121212"/><circle cx="35" cy="15" r="6.5" fill="#121212"/><circle cx="41" cy="19" r="6" fill="#121212"/><circle cx="44" cy="25" r="4.5" fill="#121212"/><circle cx="20" cy="25" r="4.5" fill="#121212"/>
<circle cx="27.2" cy="29.5" r="1.5" fill="#1d2428"/><circle cx="36.8" cy="29.5" r="1.5" fill="#1d2428"/>
<path d="M28 35.5c2.4 2 5.6 2 8 0" fill="none" stroke="#1d2428" stroke-width="1.5" stroke-linecap="round"/>
<ellipse cx="24.5" cy="33.5" rx="2.2" ry="1.3" fill="#E57A6F" opacity=".25"/><ellipse cx="39.5" cy="33.5" rx="2.2" ry="1.3" fill="#E57A6F" opacity=".25"/>
<g fill="none" stroke="#1d2428" stroke-width="2" stroke-linecap="round"><path d="M18.5 30a13.5 13.5 0 0 1 27 0"/><path d="M45.5 33v2a5 5 0 0 1-5 5h-3"/></g><rect x="16.5" y="28" width="4" height="7" rx="2" fill="#1d2428"/><rect x="43.5" y="28" width="4" height="7" rx="2" fill="#1d2428"/>
</g></svg>
