<svg xmlns="http://www.w3.org/2000/svg" viewBox="0 0 64 64" width="64" height="64" role="img" aria-label="Piper"><defs><clipPath id="avc-piper"><circle cx="32" cy="32" r="32"/></clipPath></defs>
<g clip-path="url(#avc-piper)">
<rect width="64" height="64" fill="#4E9A5B"/>

<path d="M8 66c2-13 12-20 24-20s22 7 24 20z" fill="#0F5847"/>
<rect x="28" y="38" width="8" height="10" rx="3" fill="#F2D3B1"/>
<rect x="28" y="40" width="8" height="4" fill="rgba(0,0,0,.12)"/>
<ellipse cx="32" cy="29" rx="12.5" ry="13.5" fill="#F2D3B1"/>
<ellipse cx="19.8" cy="30" rx="2.2" ry="3" fill="#F2D3B1"/><ellipse cx="44.2" cy="30" rx="2.2" ry="3" fill="#F2D3B1"/>
<circle cx="32" cy="10" r="6" fill="#D9B26F"/><path d="M19 27c0-9 6-14 13-14s13 5 13 14c-2-4-6-6-13-6s-11 2-13 6z" fill="#D9B26F"/>
<circle cx="27.2" cy="29.5" r="1.5" fill="#1d2428"/><circle cx="36.8" cy="29.5" r="1.5" fill="#1d2428"/>
<path d="M28 35.5c2.4 2 5.6 2 8 0" fill="none" stroke="#1d2428" stroke-width="1.5" stroke-linecap="round"/>
<ellipse cx="24.5" cy="33.5" rx="2.2" ry="1.3" fill="#E57A6F" opacity=".25"/><ellipse cx="39.5" cy="33.5" rx="2.2" ry="1.3" fill="#E57A6F" opacity=".25"/>

</g></svg>
